<mxfile host="app.diagrams.net" modified="2024-05-25T21:40:56.961Z" agent="Mozilla/5.0 (Macintosh; Intel Mac OS X 10_15_7) AppleWebKit/537.36 (KHTML, like Gecko) Chrome/124.0.0.0 Safari/537.36" version="21.6.1" etag="pTuZB-VnlXD8NAsO_yKl" type="github">
  <diagram name="第 1 页" id="XxI2Rfb1grAU12y6O68J">
    <mxGraphModel>
      <root>
        <mxCell id="0" />
        <mxCell id="1" parent="0" />
      </root>
    </mxGraphModel>
  </diagram>
</mxfile>
